<svg id="Layer_1" data-name="Layer 1" xmlns="http://www.w3.org/2000/svg" viewBox="0 0 133.59 231.34"><defs><style>.cls-1{fill:none;stroke:#000;stroke-miterlimit:10;stroke-width:8.01px;}</style></defs><path class="cls-1" d="M84.91,216.27V122.88a3.83,3.83,0,0,1,3.83-3.83h26a3.83,3.83,0,0,0,3.81-3.39l3.17-27.89a3.84,3.84,0,0,0-3.8-4.27H88.74a3.82,3.82,0,0,1-3.83-3.82V55.76c0-8.09,10.4-6.94,10.4-6.94h23A3.83,3.83,0,0,0,122.19,45V16a3.84,3.84,0,0,0-3.83-3.83H87.51c-42.2-.58-46.43,36.42-46.43,36.42V79.68a3.83,3.83,0,0,1-3.83,3.82H14.75a3.84,3.84,0,0,0-3.83,3.83v29.05a3.84,3.84,0,0,0,3.83,3.83H40.83l.24,96.07a3.83,3.83,0,0,0,3.83,3.82H81.08A3.83,3.83,0,0,0,84.91,216.27Z"/></svg>