<svg xmlns="http://www.w3.org/2000/svg" viewBox="0 0 831 768"><defs><style>.cls-1{fill:none;stroke:#000;stroke-miterlimit:10;stroke-width:36.14px;}</style></defs><g id="Shopping_Cart" data-name="Shopping Cart"><path d="M218.94,88.17c0,4.62-4.12,8.37-9.2,8.37h-162S25.12,99.14,25.12,77,47.74,57.4,47.74,57.4h162c5.08,0,9.2,3.75,9.2,8.37Z"/><ellipse cx="311.67" cy="653.5" rx="71.25" ry="76.54"/><ellipse cx="705.36" cy="653.5" rx="71.25" ry="76.54"/><path class="cls-1" d="M695.07,521.14H312.39a30.81,30.81,0,0,1-30.26-25.05l-54-284.53A30.8,30.8,0,0,1,258.39,175H730.47A30.8,30.8,0,0,1,761,209.62l-35.4,284.53A30.8,30.8,0,0,1,695.07,521.14Z"/><rect x="196.26" y="65.89" width="36.2" height="145.16" transform="translate(-22.04 42.34) rotate(-10.73)"/></g></svg>